ffmpeg started on 2025-05-26 at 18:45:53
Report written to "D:\Convert\FFMetrics\reports\ssim_report-6.txt"
Log level: 32
Command line:
ffmpeg -hide_banner -nostdin -i "G:\\\xc0\xed\xe8\xec\xe5\\\xce\xed\xe3\xee\xe8\xed\xe3\xe8\\!_34_\xc2\xe5\xf1\xed\xe0_2024\\DreamCast\\\xc7\xe0\xe1\xe2\xe5\xed\xe8\xe5 \xe1\xfd\xf2\xf2\xe5\xf0\xe8\\[DC] Boukyaku Battery - 07_Telegram_HEVC.mkv" -i "G:\\\xc0\xed\xe8\xec\xe5\\\xce\xed\xe3\xee\xe8\xed\xe3\xe8\\!_34_\xc2\xe5\xf1\xed\xe0_2024\\DreamCast\\\xc7\xe0\xe1\xe2\xe5\xed\xe8\xe5 \xe1\xfd\xf2\xf2\xe5\xf0\xe8\\[DC] Boukyaku Battery - 07_Telegram.mp4" -lavfi "[0:v]settb=AVTB,setpts=PTS-STARTPTS,format=pix_fmts=yuv420p10,fps=24000/1001,scale=1920:1080:flags=bicubic[main];[1:v]settb=AVTB,setpts=PTS-STARTPTS,format=pix_fmts=yuv420p,fps=24000/1001,scale=1920:1080:flags=bicubic[ref];[main][ref]ssim=eof_action=endall:stats_file='D\\:/Convert/FFMetrics/logs/ssim_logfile-6.txt'" -f null -
Input #0, matroska,webm, from 'G:\Аниме\Онгоинги\!_34_Весна_2024\DreamCast\Забвение бэттери\[DC] Boukyaku Battery - 07_Telegram_HEVC.mkv':
  Metadata:
    COMPATIBLE_BRANDS: isomiso2avc1mp41
    MAJOR_BRAND     : isom
    MINOR_VERSION   : 512
    ENCODER         : Lavf61.7.100
  Duration: 00:24:01.71, start: -0.021000, bitrate: 1360 kb/s
  Stream #0:0: Video: hevc (Main 10), yuv420p10le(tv, bt709, progressive), 1920x1080 [SAR 1:1 DAR 16:9], 23.98 fps, 23.98 tbr, 1k tbn (default)
      Metadata:
        HANDLER_NAME    : VideoHandler
        VENDOR_ID       : [0][0][0][0]
        ENCODER         : Lavc61.19.100 libx265
        BPS             : 1163692
        DURATION        : 00:24:01.523708333
        NUMBER_OF_FRAMES: 34562
        NUMBER_OF_BYTES : 209686134
        _STATISTICS_WRITING_APP: mkvpropedit v66.0.0 ('Josie') 64-bit
        _STATISTICS_WRITING_DATE_UTC: 2025-05-26 11:18:08
        _STATISTICS_TAGS: BPS DURATION NUMBER_OF_FRAMES NUMBER_OF_BYTES
  Stream #0:1: Audio: aac (LC), 48000 Hz, stereo, fltp (default)
      Metadata:
        HANDLER_NAME    : SoundHandler
        VENDOR_ID       : [0][0][0][0]
        ENCODER         : Lavc61.19.100 aac
        BPS             : 193245
        DURATION        : 00:24:01.706000000
        NUMBER_OF_FRAMES: 67581
        NUMBER_OF_BYTES : 34825398
        _STATISTICS_WRITING_APP: mkvpropedit v66.0.0 ('Josie') 64-bit
        _STATISTICS_WRITING_DATE_UTC: 2025-05-26 11:18:08
        _STATISTICS_TAGS: BPS DURATION NUMBER_OF_FRAMES NUMBER_OF_BYTES
Input #1, mov,mp4,m4a,3gp,3g2,mj2, from 'G:\Аниме\Онгоинги\!_34_Весна_2024\DreamCast\Забвение бэттери\[DC] Boukyaku Battery - 07_Telegram.mp4':
  Metadata:
    major_brand     : isom
    minor_version   : 512
    compatible_brands: isomiso2avc1mp41
    encoder         : Lavf60.16.100
  Duration: 00:24:01.65, start: 0.000000, bitrate: 3925 kb/s
  Stream #1:0[0x1](und): Video: h264 (High) (avc1 / 0x31637661), yuv420p(tv, bt709, progressive), 1920x1080 [SAR 1:1 DAR 16:9], 3777 kb/s, 23.98 fps, 23.98 tbr, 24k tbn (default)
      Metadata:
        handler_name    : VideoHandler
        vendor_id       : [0][0][0][0]
        encoder         : Lavc60.31.102 h264_qsv
  Stream #1:1[0x2](und): Audio: aac (HE-AACv2) (mp4a / 0x6134706D), 48000 Hz, stereo, fltp, 144 kb/s (default)
      Metadata:
        handler_name    : SoundHandler
        vendor_id       : [0][0][0][0]
Stream mapping:
  Stream #0:0 (hevc) -> settb:default
  Stream #1:0 (h264) -> settb:default
  ssim:default -> Stream #0:0 (wrapped_avframe)
  Stream #0:1 -> #0:1 (aac (native) -> pcm_s16le (native))
Output #0, null, to 'pipe:':
  Metadata:
    COMPATIBLE_BRANDS: isomiso2avc1mp41
    MAJOR_BRAND     : isom
    MINOR_VERSION   : 512
    encoder         : Lavf61.7.100
  Stream #0:0: Video: wrapped_avframe, yuv420p10le(tv, bt709, progressive), 1920x1080 [SAR 1:1 DAR 16:9], q=2-31, 200 kb/s, 23.98 fps, 23.98 tbn
      Metadata:
        encoder         : Lavc61.19.100 wrapped_avframe
  Stream #0:1: Audio: pcm_s16le, 48000 Hz, stereo, s16, 1536 kb/s (default)
      Metadata:
        HANDLER_NAME    : SoundHandler
        VENDOR_ID       : [0][0][0][0]
        _STATISTICS_TAGS: BPS DURATION NUMBER_OF_FRAMES NUMBER_OF_BYTES
        BPS             : 193245
        DURATION        : 00:24:01.706000000
        NUMBER_OF_FRAMES: 67581
        NUMBER_OF_BYTES : 34825398
        _STATISTICS_WRITING_APP: mkvpropedit v66.0.0 ('Josie') 64-bit
        _STATISTICS_WRITING_DATE_UTC: 2025-05-26 11:18:08
        encoder         : Lavc61.19.100 pcm_s16le
frame=  188 fps=0.0 q=-0.0 size=N/A time=00:00:07.84 bitrate=N/A speed=15.4x    frame=  434 fps=426 q=-0.0 size=N/A time=00:00:18.10 bitrate=N/A speed=17.8x    frame=  677 fps=440 q=-0.0 size=N/A time=00:00:28.23 bitrate=N/A speed=18.3x    frame=  895 fps=434 q=-0.0 size=N/A time=00:00:37.32 bitrate=N/A speed=18.1x    frame= 1111 fps=433 q=-0.0 size=N/A time=00:00:46.33 bitrate=N/A speed=18.1x    frame= 1370 fps=443 q=-0.0 size=N/A time=00:00:57.14 bitrate=N/A speed=18.5x    frame= 1578 fps=437 q=-0.0 size=N/A time=00:01:05.81 bitrate=N/A speed=18.2x    frame= 1787 fps=433 q=-0.0 size=N/A time=00:01:14.53 bitrate=N/A speed=  18x    frame= 2009 fps=432 q=-0.0 size=N/A time=00:01:23.79 bitrate=N/A speed=  18x    frame= 2192 fps=425 q=-0.0 size=N/A time=00:01:31.42 bitrate=N/A speed=17.7x    frame= 2386 fps=420 q=-0.0 size=N/A time=00:01:39.51 bitrate=N/A speed=17.5x    frame= 2599 fps=419 q=-0.0 size=N/A time=00:01:48.39 bitrate=N/A speed=17.5x    frame= 2786 fps=415 q=-0.0 size=N/A time=00:01:56.19 bitrate=N/A speed=17.3x    frame= 3021 fps=418 q=-0.0 size=N/A time=00:02:06.00 bitrate=N/A speed=17.4x    frame= 3255 fps=420 q=-0.0 size=N/A time=00:02:15.76 bitrate=N/A speed=17.5x    frame= 3485 fps=422 q=-0.0 size=N/A time=00:02:25.35 bitrate=N/A speed=17.6x    frame= 3742 fps=427 q=-0.0 size=N/A time=00:02:36.07 bitrate=N/A speed=17.8x    frame= 4014 fps=432 q=-0.0 size=N/A time=00:02:47.41 bitrate=N/A speed=  18x    frame= 4270 fps=436 q=-0.0 size=N/A time=00:02:58.09 bitrate=N/A speed=18.2x    frame= 4522 fps=438 q=-0.0 size=N/A time=00:03:08.60 bitrate=N/A speed=18.3x    frame= 4718 fps=436 q=-0.0 size=N/A time=00:03:16.77 bitrate=N/A speed=18.2x    frame= 4924 fps=434 q=-0.0 size=N/A time=00:03:25.37 bitrate=N/A speed=18.1x    frame= 5184 fps=437 q=-0.0 size=N/A time=00:03:36.21 bitrate=N/A speed=18.2x    frame= 5453 fps=440 q=-0.0 size=N/A time=00:03:47.43 bitrate=N/A speed=18.4x    frame= 5730 fps=444 q=-0.0 size=N/A time=00:03:58.98 bitrate=N/A speed=18.5x    frame= 5984 fps=446 q=-0.0 size=N/A time=00:04:09.58 bitrate=N/A speed=18.6x    frame= 6249 fps=449 q=-0.0 size=N/A time=00:04:20.63 bitrate=N/A speed=18.7x    frame= 6505 fps=450 q=-0.0 size=N/A time=00:04:31.31 bitrate=N/A speed=18.8x    frame= 6753 fps=451 q=-0.0 size=N/A time=00:04:41.65 bitrate=N/A speed=18.8x    frame= 6989 fps=451 q=-0.0 size=N/A time=00:04:51.49 bitrate=N/A speed=18.8x    frame= 7240 fps=453 q=-0.0 size=N/A time=00:05:01.96 bitrate=N/A speed=18.9x    frame= 7475 fps=453 q=-0.0 size=N/A time=00:05:11.76 bitrate=N/A speed=18.9x    frame= 7716 fps=453 q=-0.0 size=N/A time=00:05:21.82 bitrate=N/A speed=18.9x    frame= 7936 fps=453 q=-0.0 size=N/A time=00:05:30.99 bitrate=N/A speed=18.9x    frame= 8180 fps=453 q=-0.0 size=N/A time=00:05:41.17 bitrate=N/A speed=18.9x    frame= 8425 fps=454 q=-0.0 size=N/A time=00:05:51.39 bitrate=N/A speed=18.9x    frame= 8705 fps=456 q=-0.0 size=N/A time=00:06:03.07 bitrate=N/A speed=  19x    frame= 8968 fps=458 q=-0.0 size=N/A time=00:06:14.04 bitrate=N/A speed=19.1x    frame= 9207 fps=458 q=-0.0 size=N/A time=00:06:24.00 bitrate=N/A speed=19.1x    frame= 9440 fps=457 q=-0.0 size=N/A time=00:06:33.72 bitrate=N/A speed=19.1x    frame= 9686 fps=458 q=-0.0 size=N/A time=00:06:43.98 bitrate=N/A speed=19.1x    frame= 9954 fps=459 q=-0.0 size=N/A time=00:06:55.16 bitrate=N/A speed=19.2x    frame=10215 fps=461 q=-0.0 size=N/A time=00:07:06.05 bitrate=N/A speed=19.2x    frame=10478 fps=462 q=-0.0 size=N/A time=00:07:17.01 bitrate=N/A speed=19.3x    frame=10703 fps=461 q=-0.0 size=N/A time=00:07:26.40 bitrate=N/A speed=19.2x    frame=10930 fps=461 q=-0.0 size=N/A time=00:07:35.87 bitrate=N/A speed=19.2x    frame=11185 fps=461 q=-0.0 size=N/A time=00:07:46.50 bitrate=N/A speed=19.2x    frame=11411 fps=461 q=-0.0 size=N/A time=00:07:55.93 bitrate=N/A speed=19.2x    frame=11670 fps=462 q=-0.0 size=N/A time=00:08:06.73 bitrate=N/A speed=19.3x    frame=11944 fps=463 q=-0.0 size=N/A time=00:08:18.16 bitrate=N/A speed=19.3x    frame=12193 fps=463 q=-0.0 size=N/A time=00:08:28.54 bitrate=N/A speed=19.3x    frame=12459 fps=465 q=-0.0 size=N/A time=00:08:39.64 bitrate=N/A speed=19.4x    frame=12686 fps=464 q=-0.0 size=N/A time=00:08:49.11 bitrate=N/A speed=19.4x    frame=12896 fps=463 q=-0.0 size=N/A time=00:08:57.87 bitrate=N/A speed=19.3x    frame=13127 fps=463 q=-0.0 size=N/A time=00:09:07.50 bitrate=N/A speed=19.3x    frame=13391 fps=464 q=-0.0 size=N/A time=00:09:18.51 bitrate=N/A speed=19.3x    frame=13608 fps=463 q=-0.0 size=N/A time=00:09:27.56 bitrate=N/A speed=19.3x    frame=13834 fps=462 q=-0.0 size=N/A time=00:09:36.99 bitrate=N/A speed=19.3x    frame=14084 fps=463 q=-0.0 size=N/A time=00:09:47.42 bitrate=N/A speed=19.3x    frame=14329 fps=463 q=-0.0 size=N/A time=00:09:57.63 bitrate=N/A speed=19.3x    frame=14557 fps=463 q=-0.0 size=N/A time=00:10:07.14 bitrate=N/A speed=19.3x    frame=14820 fps=463 q=-0.0 size=N/A time=00:10:18.11 bitrate=N/A speed=19.3x    frame=15067 fps=464 q=-0.0 size=N/A time=00:10:28.41 bitrate=N/A speed=19.3x    frame=15320 fps=464 q=-0.0 size=N/A time=00:10:38.97 bitrate=N/A speed=19.4x    frame=15561 fps=464 q=-0.0 size=N/A time=00:10:49.02 bitrate=N/A speed=19.4x    frame=15841 fps=465 q=-0.0 size=N/A time=00:11:00.70 bitrate=N/A speed=19.4x    frame=16091 fps=466 q=-0.0 size=N/A time=00:11:11.12 bitrate=N/A speed=19.4x    frame=16325 fps=466 q=-0.0 size=N/A time=00:11:20.88 bitrate=N/A speed=19.4x    frame=16575 fps=466 q=-0.0 size=N/A time=00:11:31.31 bitrate=N/A speed=19.4x    frame=16834 fps=466 q=-0.0 size=N/A time=00:11:42.11 bitrate=N/A speed=19.4x    frame=17096 fps=467 q=-0.0 size=N/A time=00:11:53.04 bitrate=N/A speed=19.5x    frame=17341 fps=467 q=-0.0 size=N/A time=00:12:03.26 bitrate=N/A speed=19.5x    frame=17584 fps=467 q=-0.0 size=N/A time=00:12:13.39 bitrate=N/A speed=19.5x    frame=17813 fps=467 q=-0.0 size=N/A time=00:12:22.95 bitrate=N/A speed=19.5x    frame=18073 fps=467 q=-0.0 size=N/A time=00:12:33.79 bitrate=N/A speed=19.5x    frame=18321 fps=467 q=-0.0 size=N/A time=00:12:44.13 bitrate=N/A speed=19.5x    frame=18574 fps=468 q=-0.0 size=N/A time=00:12:54.69 bitrate=N/A speed=19.5x    frame=18804 fps=467 q=-0.0 size=N/A time=00:13:04.28 bitrate=N/A speed=19.5x    frame=19073 fps=468 q=-0.0 size=N/A time=00:13:15.50 bitrate=N/A speed=19.5x    frame=19321 fps=468 q=-0.0 size=N/A time=00:13:25.84 bitrate=N/A speed=19.5x    frame=19579 fps=469 q=-0.0 size=N/A time=00:13:36.60 bitrate=N/A speed=19.6x    frame=19844 fps=469 q=-0.0 size=N/A time=00:13:47.66 bitrate=N/A speed=19.6x    frame=20094 fps=469 q=-0.0 size=N/A time=00:13:58.08 bitrate=N/A speed=19.6x    frame=20345 fps=470 q=-0.0 size=N/A time=00:14:08.55 bitrate=N/A speed=19.6x    frame=20583 fps=469 q=-0.0 size=N/A time=00:14:18.48 bitrate=N/A speed=19.6x    frame=20810 fps=469 q=-0.0 size=N/A time=00:14:27.95 bitrate=N/A speed=19.6x    frame=21048 fps=469 q=-0.0 size=N/A time=00:14:37.87 bitrate=N/A speed=19.6x    frame=21307 fps=469 q=-0.0 size=N/A time=00:14:48.67 bitrate=N/A speed=19.6x    frame=21551 fps=470 q=-0.0 size=N/A time=00:14:58.85 bitrate=N/A speed=19.6x    frame=21804 fps=470 q=-0.0 size=N/A time=00:15:09.40 bitrate=N/A speed=19.6x    frame=22042 fps=470 q=-0.0 size=N/A time=00:15:19.33 bitrate=N/A speed=19.6x    frame=22295 fps=470 q=-0.0 size=N/A time=00:15:29.88 bitrate=N/A speed=19.6x    frame=22546 fps=470 q=-0.0 size=N/A time=00:15:40.35 bitrate=N/A speed=19.6x    frame=22776 fps=470 q=-0.0 size=N/A time=00:15:49.94 bitrate=N/A speed=19.6x    frame=22995 fps=469 q=-0.0 size=N/A time=00:15:59.08 bitrate=N/A speed=19.6x    frame=23256 fps=470 q=-0.0 size=N/A time=00:16:09.96 bitrate=N/A speed=19.6x    frame=23503 fps=470 q=-0.0 size=N/A time=00:16:20.27 bitrate=N/A speed=19.6x    frame=23729 fps=470 q=-0.0 size=N/A time=00:16:29.69 bitrate=N/A speed=19.6x    frame=23968 fps=469 q=-0.0 size=N/A time=00:16:39.66 bitrate=N/A speed=19.6x    frame=24231 fps=470 q=-0.0 size=N/A time=00:16:50.63 bitrate=N/A speed=19.6x    frame=24445 fps=469 q=-0.0 size=N/A time=00:16:59.56 bitrate=N/A speed=19.6x    frame=24713 fps=470 q=-0.0 size=N/A time=00:17:10.73 bitrate=N/A speed=19.6x    frame=24926 fps=469 q=-0.0 size=N/A time=00:17:19.62 bitrate=N/A speed=19.6x    frame=25138 fps=469 q=-0.0 size=N/A time=00:17:28.46 bitrate=N/A speed=19.5x    frame=25351 fps=468 q=-0.0 size=N/A time=00:17:37.34 bitrate=N/A speed=19.5x    frame=25576 fps=468 q=-0.0 size=N/A time=00:17:46.73 bitrate=N/A speed=19.5x    frame=25815 fps=468 q=-0.0 size=N/A time=00:17:56.70 bitrate=N/A speed=19.5x    frame=26052 fps=468 q=-0.0 size=N/A time=00:18:06.58 bitrate=N/A speed=19.5x    frame=26243 fps=467 q=-0.0 size=N/A time=00:18:14.55 bitrate=N/A speed=19.5x    frame=26450 fps=466 q=-0.0 size=N/A time=00:18:23.18 bitrate=N/A speed=19.4x    frame=26653 fps=466 q=-0.0 size=N/A time=00:18:31.65 bitrate=N/A speed=19.4x    frame=26877 fps=465 q=-0.0 size=N/A time=00:18:40.99 bitrate=N/A speed=19.4x    frame=27114 fps=465 q=-0.0 size=N/A time=00:18:50.87 bitrate=N/A speed=19.4x    frame=27364 fps=466 q=-0.0 size=N/A time=00:19:01.30 bitrate=N/A speed=19.4x    frame=27627 fps=466 q=-0.0 size=N/A time=00:19:12.27 bitrate=N/A speed=19.4x    frame=27842 fps=465 q=-0.0 size=N/A time=00:19:21.24 bitrate=N/A speed=19.4x    frame=28090 fps=466 q=-0.0 size=N/A time=00:19:31.58 bitrate=N/A speed=19.4x    frame=28334 fps=466 q=-0.0 size=N/A time=00:19:41.76 bitrate=N/A speed=19.4x    frame=28581 fps=466 q=-0.0 size=N/A time=00:19:52.06 bitrate=N/A speed=19.4x    frame=28837 fps=466 q=-0.0 size=N/A time=00:20:02.74 bitrate=N/A speed=19.4x    frame=29113 fps=467 q=-0.0 size=N/A time=00:20:14.25 bitrate=N/A speed=19.5x    frame=29372 fps=467 q=-0.0 size=N/A time=00:20:25.05 bitrate=N/A speed=19.5x    frame=29635 fps=467 q=-0.0 size=N/A time=00:20:36.02 bitrate=N/A speed=19.5x    frame=29903 fps=468 q=-0.0 size=N/A time=00:20:47.20 bitrate=N/A speed=19.5x    frame=30151 fps=468 q=-0.0 size=N/A time=00:20:57.54 bitrate=N/A speed=19.5x    frame=30395 fps=468 q=-0.0 size=N/A time=00:21:07.72 bitrate=N/A speed=19.5x    frame=30583 fps=467 q=-0.0 size=N/A time=00:21:15.56 bitrate=N/A speed=19.5x    frame=30788 fps=466 q=-0.0 size=N/A time=00:21:24.11 bitrate=N/A speed=19.5x    frame=31056 fps=467 q=-0.0 size=N/A time=00:21:35.29 bitrate=N/A speed=19.5x    frame=31298 fps=467 q=-0.0 size=N/A time=00:21:45.38 bitrate=N/A speed=19.5x    frame=31558 fps=467 q=-0.0 size=N/A time=00:21:56.23 bitrate=N/A speed=19.5x    frame=31799 fps=467 q=-0.0 size=N/A time=00:22:06.28 bitrate=N/A speed=19.5x    frame=32063 fps=467 q=-0.0 size=N/A time=00:22:17.29 bitrate=N/A speed=19.5x    frame=32263 fps=467 q=-0.0 size=N/A time=00:22:25.63 bitrate=N/A speed=19.5x    frame=32490 fps=467 q=-0.0 size=N/A time=00:22:35.10 bitrate=N/A speed=19.5x    frame=32711 fps=466 q=-0.0 size=N/A time=00:22:44.32 bitrate=N/A speed=19.5x    frame=32868 fps=465 q=-0.0 size=N/A time=00:22:50.86 bitrate=N/A speed=19.4x    frame=33039 fps=464 q=-0.0 size=N/A time=00:22:58.00 bitrate=N/A speed=19.4x    frame=33237 fps=464 q=-0.0 size=N/A time=00:23:06.25 bitrate=N/A speed=19.3x    frame=33424 fps=463 q=-0.0 size=N/A time=00:23:14.05 bitrate=N/A speed=19.3x    frame=33587 fps=462 q=-0.0 size=N/A time=00:23:20.85 bitrate=N/A speed=19.3x    frame=33761 fps=461 q=-0.0 size=N/A time=00:23:28.11 bitrate=N/A speed=19.2x    frame=33922 fps=460 q=-0.0 size=N/A time=00:23:34.83 bitrate=N/A speed=19.2x    frame=34120 fps=460 q=-0.0 size=N/A time=00:23:43.08 bitrate=N/A speed=19.2x    frame=34326 fps=459 q=-0.0 size=N/A time=00:23:51.68 bitrate=N/A speed=19.1x    frame=34538 fps=459 q=-0.0 size=N/A time=00:24:00.52 bitrate=N/A speed=19.1x    [Parsed_ssim_10 @ 00000208995e7e00] SSIM Y:0.993133 (21.632164) U:0.993587 (21.929704) V:0.992765 (21.405338) All:0.993147 (21.641294)
[out#0/null @ 0000020891a84e80] video:14851KiB audio:270324KiB subtitle:0KiB other streams:0KiB global headers:0KiB muxing overhead: unknown
frame=34562 fps=459 q=-0.0 Lsize=N/A time=00:24:01.52 bitrate=N/A speed=19.1x    
